PathFileType	4	(X/Y/Z)	C:/Users/beibeiliu/ov580/test_trc/User1\sequence.24_training_dense_right.trc
DataRate	CameraRate	NumFrames	NumMarkers	Units	OrigDataRate	OrigDataStartFrame	OrigNumFrames
120	120	25	19	mm	120	1	177
Frame#	Time	ThumbCMC			ThumbMCP			ThumbIP			ThumbTip			IndexMCP			IndexPIP			IndexTip			MiddleMCP			MiddlePIP			MiddleTip			RingMCP			RingPIP			RingTip			PinkyMCP			PinkyPIP			PinkyTip			BackHand1			BackHand2			BackHand3	
		X0	Y0	Z0	X1	Y1	Z1	X2	Y2	Z2	X3	Y3	Z3	X4	Y4	Z4	X5	Y5	Z5	X6	Y6	Z6	X7	Y7	Z7	X8	Y8	Z8	X9	Y9	Z9	X10	Y10	Z10	X11	Y11	Z11	X12	Y12	Z12	X13	Y13	Z13	X14	Y14	Z14	X15	Y15	Z15	X16	Y16	Z16	X17	Y17	Z17	X18	Y18	Z18	
0	0	95.8145	39.8199	63.9325	68.6641	19.9219	57.6211	51.2393	4.06559	42.4859	36.2717	-9.79421	34.2497	105.861	30.1218	-18.8105	104.053	27.0787	-47.6226	101.948	26.8816	-68.7479	138.365	34.1991	-27.8993	136.877	31.0194	-55.6714	144.31	27.9322	-85.1269	160.243	29.0518	-21.1865	165.393	26.4631	-48.8075	173.138	21.4359	-73.7809	184.522	18.328	0.189775	197.581	15.177	-13.4601	210.154	19.9764	-28.2396	156.084	46.8538	26.9502	157.124	64.4344	57.6466	122.547	56.8775	42.6311	
1	0.00833333	92.2237	39.0436	59.1761	72.3619	20.6271	56.9188	51.6183	4.51608	40.2948	33.6142	-7.48245	37.8214	105.315	30.0722	-19.3381	101.318	29.2394	-47.3259	105.095	27.9601	-72.9305	134.193	34.4211	-27.5959	136.307	31.564	-60.1928	143.733	29.2524	-87.522	157.669	29.751	-23.9034	168.951	27.362	-45.5193	171.436	21.8075	-73.8131	182.961	18.2426	0.530688	197.899	15.139	-14.5398	208.611	18.6807	-33.9167	155.228	46.7035	26.8351	156.86	63.7611	57.072	121.158	57.5319	38.7724	
2	0.0166667	92.0174	41.5462	64.1646	71.9029	19.9971	54.6852	50.4636	5.86433	41.5429	35.3989	-6.63954	35.0231	105.662	30.4554	-19.8283	100.631	29.161	-43.5029	105.567	28.1235	-69.5669	134.797	34.7116	-32.5862	136.015	32.261	-59.6086	144.306	29.7722	-88.7565	160.379	30.2199	-21.965	164.849	27.6028	-45.9865	171.962	21.3988	-72.4413	183.639	19.1407	-0.994472	196.476	14.2979	-12.2911	206.748	18.6068	-30.3548	156.218	46.7245	25.7021	159.972	63.8351	54.0374	123.471	58.765	39.9069	
3	0.025	90.6225	40.9928	61.5154	70.4193	21.9219	57.6944	50.6543	5.83417	40.2226	33.0243	-7.00607	35.7559	103.733	31.2824	-17.8205	100.785	29.4645	-47.7956	106.703	28.5756	-71.3138	138.735	35.3349	-29.9615	140.21	32.4987	-60.0347	146.567	29.4535	-86.4453	159.074	31.5799	-23.6315	166.862	28.6388	-49.6439	170.865	21.7414	-73.1069	183.069	19.6902	0.332963	194.374	14.9793	-11.2528	210.141	19.152	-32.8036	153.529	48.6786	25.2891	158.855	63.0821	57.474	119.794	57.0479	37.1583	
4	0.0333333	89.6009	40.8832	60.2684	71.5559	21.0442	56.4654	51.0754	6.30063	41.7887	33.8961	-7.98136	34.9738	105.457	31.3371	-21.5267	100.837	29.9852	-44.423	106.884	27.6426	-70.3928	134.089	35.1957	-26.9304	138.293	31.5295	-59.8586	143.317	29.9739	-84.6692	158.367	30.2105	-18.5106	164.466	27.8811	-50.2576	171.604	22.9627	-74.2616	183.668	19.6779	3.89104	197.743	15.7473	-15.0475	211.076	17.6426	-33.3457	154.634	48.3986	28.8279	161.919	64.5099	56.8199	125.675	57.9475	40.6635	
5	0.0416667	90.2097	40.182	59.2267	72.9882	20.5689	55.4115	54.3834	6.78981	44.974	36.2089	-6.82943	37.5156	102.757	30.924	-20.1578	104.995	29.3667	-47.4197	100.703	29.2733	-73.0874	137.147	35.5382	-27.1413	141.083	33.013	-56.2836	143.509	30.1897	-83.2686	158.311	30.8809	-22.3162	167.744	29.3174	-46.6841	169.803	22.7543	-70.5671	186.867	19.8705	1.52558	195.284	16.7777	-12.7626	214	19.5188	-33.5171	159.054	46.986	26.3303	159.24	62.565	54.7181	125.326	56.827	36.8965	
6	0.05	92.7645	39.3959	60.4531	69.8235	21.9367	57.9705	48.89	6.81656	44.5931	32.9919	-6.64513	40.3591	103.982	30.7228	-20.3191	99.6035	29.4983	-47.1545	105.92	28.4268	-71.9088	134.427	36.4144	-28.4703	138.679	33.1333	-56.5465	144.49	30.478	-85.2179	162.347	32.1217	-21.6527	168.864	29.2082	-47.0548	173.356	22.3219	-70.5064	183.619	20.441	2.43279	200.147	15.7954	-12.2783	214.383	19.7569	-32.7638	155.343	49.495	28.9225	156.763	63.2143	57.5012	122.865	56.3249	38.4332	
7	0.0583333	92.4345	40.6562	65.2545	70.5528	21.4452	57.2971	51.2496	7.04549	43.9714	33.3121	-6.64866	36.3195	102.16	32.2911	-20.4232	103.096	29.3836	-48.7782	103.917	30.2108	-73.8824	137.001	36.4738	-29.8774	139.45	33.1675	-58.0551	148.361	30.1129	-89.0789	162.96	32.7989	-22.0201	169.907	28.0189	-49.3511	169.866	16.4728	-71.8432	183.777	19.4534	2.59691	193.223	13.5327	-9.45382	208.905	23.4717	-23.258	154.705	50.4246	25.0687	157.365	65.1673	59.9005	120.565	58.5544	42.0546	
8	0.0666667	97.3299	39.9406	60.4648	74.2334	21.9585	54.623	58.821	8.94062	38.7329	40.5103	-3.99279	30.02	106.815	36.3234	-21.6692	104.914	36.2256	-46.6337	109.139	36.263	-68.9532	139.553	38.4137	-29.1013	142.171	31.8876	-60.6806	145.95	25.9237	-83.9545	160.355	34.8681	-19.172	165.996	22.529	-48.9343	166.602	-6.62341	-66.2504	184.022	11.5525	-0.0861621	185.769	5.37069	-6.87545	193.462	15.2971	-5.60969	162.048	52.3022	27.1369	163.6	64.0053	58.3689	127.22	60.0182	44.1011	
9	0.075	103.498	47.6187	63.0058	84.1256	27.4912	44.4517	70.9227	18.8251	24.1763	54.7795	9.89898	9.35206	118.254	52.7778	-21.698	113.904	54.9621	-44.2705	119.691	56.2703	-73.8575	143.266	41.9551	-34.6721	145.956	30.1459	-61.8967	147.278	19.6794	-85.5446	165.207	29.0099	-22.9319	160.83	3.71345	-44.8488	149.853	-27.2842	-37.3592	185.626	10.4086	-2.18121	166.662	-10.8023	0.912859	161.574	12.355	22.5246	165.597	53.5844	30.3882	172.596	62.7286	58.8602	139.099	68.0404	44.8386	
10	0.0833333	109.624	48.1495	59.1748	88.0037	30.7595	37.1245	76.9933	22.2124	14.1827	67.4818	14.1469	-4.48857	119.136	58.4151	-18.8789	117.956	61.8933	-48.3897	127.349	63.3631	-70.4362	146.416	40.291	-34.4103	147.544	27.773	-57.8086	146.459	11.5623	-83.2558	162.794	16.0988	-23.6447	152.201	-13.3314	-28.8762	138.719	-33.2679	-6.30834	179.724	3.56226	1.46904	157.637	-14.7432	8.85401	142.518	2.09647	35.9719	169.174	55.7359	30.8637	174.761	64.9956	63.1399	140.963	68.158	46.2466	
11	0.0916667	110.707	46.8954	64.0317	96.9234	31.3783	37.4261	85.241	25.4309	7.1598	74.9054	17.4353	-12.4143	118.976	60.1799	-21.8945	121.694	62.0319	-47.1482	127.132	65.7336	-72.3044	143.296	40.7673	-31.4268	143.018	23.6144	-57.3395	138.853	7.04893	-80.8892	158.417	11.2287	-18.1833	146.357	-18.3555	-13.1442	131.891	-28.9412	16.5745	171.019	2.04365	2.21711	152.503	-15.2339	16.9718	137.149	-3.41932	41.509	172.82	54.6508	25.4645	176.233	62.9078	62.2135	139.213	69.4194	43.411	
12	0.1	111.125	48.9359	63.5161	98.6482	33.8074	36.0416	90.6609	28.3577	10.3469	82.6209	22.1016	-11.8456	120.641	63.1583	-24.3703	123.696	61.8271	-46.7283	125.707	64.7319	-67.9384	142.227	38.7142	-35.3494	141.353	18.3798	-56.6282	136.209	-0.230495	-76.2931	153.858	9.21313	-14.6557	141.027	-19.8435	-1.46717	127.585	-21.4328	27.5537	171.314	0.583199	3.52473	150.013	-11.9242	17.4767	134.502	1.3204	41.5867	173.799	56.9298	26.4775	178.451	60.9814	61.8476	143.583	72.8291	47.7596	
13	0.108333	117.711	49.7978	60.9138	100.054	36.3086	34.0657	96.204	33.5592	7.02016	88.253	26.0123	-13.9173	126.341	62.317	-21.7221	127.57	61.8101	-46.4063	131.576	65.7291	-72.8419	147.616	39.2517	-31.1058	139.578	19.954	-52.5358	130.692	-6.18483	-73.8402	153.938	7.20497	-13.1792	134.08	-12.9127	-0.324483	128.661	-15.2204	30.2276	173.058	2.04609	3.48423	148.472	-11.1171	20.0738	135.388	4.26144	39.9137	175.741	55.322	29.4202	181.467	59.4332	60.7033	146.433	73.6172	48.4599	
14	0.116667	117.665	51.1569	61.6626	98.2322	38.9955	34.9143	98.495	36.8433	5.68485	96.5389	30.4693	-22.2959	126.45	66.9641	-24.7596	129.502	63.7839	-48.1337	132.122	66.4336	-70.0592	142.44	42.097	-31.755	137.312	21.2446	-51.0106	123.08	-6.61382	-67.7003	154.059	10.2413	-12.699	132.375	-12.4422	4.2319	127.054	-4.96541	36.0594	170.536	4.3936	2.2353	149.411	-11.9131	17.6545	138.541	10.5471	43.9528	179.904	53.1983	28.1124	182.248	59.2906	63.3111	148.854	71.8963	46.0444	
15	0.125	117.912	53.2506	62.8064	102.216	41.2645	34.0875	101.09	39.0117	4.86443	105.811	30.6858	-20.179	127.261	70.6146	-22.1866	127.942	68.4291	-47.0685	132.369	70.2619	-69.4472	142.757	44.2339	-32.7894	128.936	22.751	-52.3441	115.084	-5.03944	-59.2816	148.904	15.2506	-13.9951	135.058	-9.94659	1.26374	129.84	-1.58583	36.0216	169.837	5.26497	0.0776512	148.156	-8.24183	16.1369	140.994	13.3256	41.6788	182.849	54.097	29.3722	187.66	57.2132	61.3985	151.756	72.1002	51.1536	
16	0.133333	122.337	51.2546	64.6685	102.368	43.5431	32.7232	109.162	41.0794	2.03153	116.697	30.1557	-21.9609	128.758	73.2706	-21.2241	127.927	72.4134	-44.0263	137.026	71.5799	-70.318	143.398	50.2843	-29.6314	128.531	26.9235	-49.2696	114.941	-6.09494	-49.2541	151.837	20.9073	-13.3121	130.88	-4.93344	3.11081	129.622	4.86814	36.0086	171.638	8.10142	-1.28192	145.873	-3.51569	15.7412	143.85	17.5543	40.144	182.208	55.1908	31.0384	189.182	55.681	65.9278	154.398	71.204	53.7006	
17	0.141667	121.027	53.9733	64.5743	107.253	44.675	31.0641	107.661	40.6168	3.15048	119.769	29.8119	-19.7021	133.321	74.7325	-19.8412	133.514	74.0014	-43.1632	137.871	72.5788	-67.4519	145.008	49.0542	-30.8957	127.023	24.5751	-47.9749	106.885	-2.97576	-39.9766	148.717	21.1655	-14.7919	130.963	-3.70072	4.82259	129.426	7.94256	33.3085	166.545	8.51474	-3.52356	145.133	-2.74782	14.5814	144.691	13.9576	41.5191	184.452	54.0609	31.147	190.285	53.5925	68.3959	153.752	72.5745	55.2609	
18	0.15	119.937	53.8467	69.321	106.496	46.4494	31.5734	107.527	41.3067	3.4773	122.615	29.2289	-21.5839	133.012	78.1874	-15.6206	135.432	76.0151	-39.2183	142.685	73.8359	-68.4234	143.403	52.4635	-30.6055	129.307	28.6311	-45.112	108.442	-2.87445	-31.1294	154.234	21.072	-13.5422	130.003	-0.657038	-0.019043	131.096	10.0255	34.2366	169.109	10.4041	-2.93928	143.518	-1.66248	13.6403	145.073	12.4579	38.8673	181.621	54.6166	31.3684	187.012	50.7666	67.5549	158.598	71.4437	55.4485	
19	0.158333	121.556	55.2607	67.4139	109.16	47.8708	32.7401	110.993	42.5038	6.45854	123.845	29.3288	-19.0696	135.47	77.3849	-12.1248	136.85	77.2708	-38.721	140.347	76.5761	-63.6282	147.857	49.6388	-29.1822	126.587	27.9487	-43.8428	104.021	0.458846	-28.6032	148.99	18.9226	-13.6751	125.572	1.82948	2.70829	131.168	12.0608	36.6498	167.215	10.9645	-1.77831	142.81	-3.31345	11.2051	142.587	17.3606	39.7012	182.104	52.734	30.6546	190.037	48.3347	65.6132	161.163	69.1916	58.4327	
20	0.166667	125.326	54.7266	65.9906	107.139	49.4303	36.2106	107.761	45.253	3.5208	125.734	30.8677	-15.0672	141.919	74.814	-13.6931	139.122	77.7662	-38.3081	143.495	75.2285	-64.0965	147.987	53.432	-25.2053	128.388	31.7977	-44.7105	98.5268	4.94554	-31.6578	147.087	19.7041	-12.9093	122.518	2.46037	4.65071	128.669	6.66136	35.4467	165.145	3.60674	-1.84166	140.712	-6.34714	11.6884	140.803	10.6524	42.3104	187.974	44.9	35.1662	192.773	42.732	69.2874	159.089	70.1017	54.8208	
21	0.175	125.648	58.4319	65.4715	111.221	52.5125	32.1884	110.021	49.0115	1.65618	121.257	32.2717	-17.402	145	75.0524	-18.0187	143.902	76.1824	-37.2905	148.917	72.9914	-68.416	149.126	48.9625	-27.7864	123.341	32.7245	-45.6194	97.5725	7.31626	-39.0293	145.815	15.2471	-12.7048	122.104	1.92673	2.36418	124.214	6.16148	36.4284	158.445	0.34959	-1.63623	135.255	-3.89091	14.1695	136.947	11.8892	42.5027	184.879	43.6173	36.247	190.335	37.6491	69.5869	166.323	64.9607	57.1001	
22	0.183333	128.62	58.5969	65.3631	111.893	54.3169	34.8061	115.463	51.0548	1.00164	123.869	32.8331	-18.9392	148.737	73.3684	-18.5072	147.864	70.9278	-41.791	153.052	66.8117	-66.2567	152.761	43.4447	-24.6289	127.618	28.8777	-44.6224	94.8276	8.02003	-42.7675	147.655	13.6233	-10.5435	117.247	2.02869	3.51723	120.541	5.20667	38.2729	153.227	-0.153845	0.0557387	131.189	-7.5802	16.3451	133.349	13.8808	43.9577	185.576	37.8773	31.9271	188.181	32.5978	72.1952	167.648	61.8563	53.6557	
23	0.191667	128.193	58.5708	67.9684	113.138	55.4373	34.0948	115.313	50.3591	6.39896	119.431	33.7321	-20.5055	152.739	66.7729	-14.2041	150.191	68.6175	-41.1005	155.41	60.5262	-64.3423	151.291	42.3773	-23.6195	126.691	27.1072	-43.8453	96.7647	10.5203	-46.9106	143.057	10.8287	-8.81438	113.359	-1.45045	7.78303	116.145	9.1103	41.1746	150.16	-5.98238	2.29083	126.989	-6.77008	15.5545	132.642	8.52756	46.9926	184.558	28.394	32.5457	189.655	26.3477	72.6606	169.935	57.3088	58.3434	
24	0.2	131.481	56.0993	65.746	115.134	53.7284	34.1459	111.921	50.194	4.79277	120	30.4097	-20.7266	152.028	63.1947	-18.0923	151.866	61.4881	-40.5723	155.32	56.338	-66.3128	151.907	33.2437	-22.518	125.77	24.3565	-42.9509	92.7839	6.75056	-47.3217	138.367	8.50451	-9.03975	111.853	-2.18144	7.78773	113.081	3.98774	38.6043	149.677	-9.67437	4.96075	123.356	-8.29684	22.507	129.524	3.26814	47.9672	184.468	25.4603	34.3663	187.967	21.7096	74.932	168.026	55.1498	58.8395	
